<mxfile host="app.diagrams.net" modified="2024-04-07T10:22:49.209Z" agent="Mozilla/5.0 (Macintosh; Intel Mac OS X 10_15_7) AppleWebKit/537.36 (KHTML, like Gecko) Chrome/116.0.0.0 Safari/537.36" version="24.2.2" etag="9Wjz7jADeu9RqTopc_kY" type="github">
  <diagram name="Page-1" id="UxfJvk6mQ5cfcSC7xsiu">
    <mxGraphModel>
      <root>
        <mxCell id="0" />
        <mxCell id="1" parent="0" />
      </root>
    </mxGraphModel>
  </diagram>
</mxfile>
